<?xml version="1.0" encoding="UTF-8" standalone="no"?>
<!DOCTYPE svg PUBLIC "-//W3C//DTD SVG 1.1//EN" "http://www.w3.org/Graphics/SVG/1.1/DTD/svg11.dtd">
<svg width="100%" height="100%" viewBox="0 0 4961 3508" version="1.1" xmlns="http://www.w3.org/2000/svg" xmlns:xlink="http://www.w3.org/1999/xlink" xml:space="preserve" xmlns:serif="http://www.serif.com/" style="fill-rule:evenodd;clip-rule:evenodd;stroke-linecap:round;stroke-linejoin:round;stroke-miterlimit:1.5;">
    <g transform="matrix(2.335223,-0.113495,0.101328,2.615619,-1274.152864,-1687.086383)">
        <path d="M1580.839,1163.598C1580.839,1163.598 1641.918,1073.473 1688.498,1024.145C1721.24,989.472 1760.089,957.216 1790.187,933.833C1843.518,892.401 1901.703,862.224 1946.245,844.086C2017.79,814.951 2074.952,807.714 2074.952,807.714C1743.499,776.895 1292.465,995.413 838.921,1256.021L1424.387,1157.725L1089.209,1931.761C1289.38,1740.239 1460.912,1635.581 1624.142,1477.095L1374.563,1470.76" style="fill:rgb(47,47,47);stroke:black;stroke-width:0.4px;"/>
    </g>
    <g transform="matrix(1.912174,0.293396,-0.261944,2.141774,57.168122,-1733.885479)">
        <path d="M1966.731,655.175C1878.139,780.488 1530.842,1383.01 1530.842,1383.01L2298.017,1156.479C2020.237,1459.113 1552.181,1991.133 1035.152,2217.817C1246.917,1946.615 1476.856,1711.914 1635.787,1491.805L1321.976,1530.182C1321.976,1530.182 1457.549,1196.608 1540.407,1045.886C1597.68,941.707 1678.963,829.997 1810.51,735.256C1883.806,682.467 1945.962,661.409 1966.731,655.175Z" style="fill:rgb(0,169,230);stroke:black;stroke-width:0.48px;"/>
    </g>
</svg>
